<svg width="800" height="1100" viewBox="0 0 800 1100" fill="none" xmlns="http://www.w3.org/2000/svg">
  <rect width="800" height="1100" fill="#F4F6F8"/>
  <rect x="26" y="26" width="748" height="1048" rx="16" fill="#FFFFFF" stroke="#D9E1E8"/>
  <rect x="530" y="26" width="244" height="1048" rx="0" fill="#23384A"/>

  <rect x="86" y="56" width="388" height="78" rx="10" fill="#F1F3F5"/>
  <rect x="86" y="148" width="388" height="28" rx="8" fill="#E8ECF1"/>
  <rect x="86" y="196" width="354" height="16" rx="4" fill="#DCE3EA"/>
  <rect x="86" y="224" width="320" height="16" rx="4" fill="#DCE3EA"/>

  <circle cx="652" cy="108" r="58" fill="#E8EEF3"/>
  <circle cx="652" cy="108" r="54" fill="url(#avatarGrad)"/>
  <path d="M634 121C639 107 646 99 652 99C658 99 665 107 670 121" stroke="#FFFFFF" stroke-width="8" stroke-linecap="round"/>
  <circle cx="652" cy="99" r="18" fill="#F6D8C3"/>
  <path d="M626 141C634 126 642 121 652 121C662 121 670 126 678 141" fill="#E8EEF3"/>

  <rect x="56" y="286" width="420" height="18" rx="4" fill="#D9E1E8"/>
  <rect x="56" y="318" width="360" height="12" rx="4" fill="#E0E7ED"/>
  <rect x="56" y="340" width="390" height="12" rx="4" fill="#E0E7ED"/>
  <rect x="56" y="362" width="410" height="12" rx="4" fill="#E0E7ED"/>
  <rect x="56" y="396" width="370" height="18" rx="4" fill="#D9E1E8"/>
  <rect x="56" y="428" width="340" height="12" rx="4" fill="#E0E7ED"/>
  <rect x="56" y="450" width="400" height="12" rx="4" fill="#E0E7ED"/>
  <rect x="56" y="472" width="352" height="12" rx="4" fill="#E0E7ED"/>
  <rect x="56" y="508" width="420" height="18" rx="4" fill="#D9E1E8"/>
  <rect x="56" y="540" width="410" height="12" rx="4" fill="#E0E7ED"/>
  <rect x="56" y="562" width="390" height="12" rx="4" fill="#E0E7ED"/>
  <rect x="56" y="584" width="370" height="12" rx="4" fill="#E0E7ED"/>
  <rect x="56" y="616" width="370" height="18" rx="4" fill="#D9E1E8"/>
  <rect x="56" y="648" width="420" height="12" rx="4" fill="#E0E7ED"/>
  <rect x="56" y="670" width="350" height="12" rx="4" fill="#E0E7ED"/>
  <rect x="56" y="692" width="390" height="12" rx="4" fill="#E0E7ED"/>

  <rect x="560" y="210" width="158" height="20" rx="4" fill="#4E657B"/>
  <rect x="560" y="250" width="150" height="10" rx="4" fill="#7B93A8"/>
  <rect x="560" y="272" width="120" height="10" rx="4" fill="#7B93A8"/>
  <rect x="560" y="294" width="135" height="10" rx="4" fill="#7B93A8"/>

  <rect x="560" y="350" width="150" height="20" rx="4" fill="#4E657B"/>
  <rect x="560" y="390" width="148" height="10" rx="4" fill="#7B93A8"/>
  <rect x="560" y="412" width="130" height="10" rx="4" fill="#7B93A8"/>
  <rect x="560" y="434" width="142" height="10" rx="4" fill="#7B93A8"/>
  <rect x="560" y="456" width="100" height="10" rx="4" fill="#7B93A8"/>

  <rect x="560" y="522" width="150" height="20" rx="4" fill="#4E657B"/>
  <rect x="560" y="562" width="110" height="10" rx="4" fill="#7B93A8"/>
  <rect x="560" y="584" width="126" height="10" rx="4" fill="#7B93A8"/>
  <rect x="560" y="606" width="92" height="10" rx="4" fill="#7B93A8"/>

  <rect x="560" y="688" width="150" height="20" rx="4" fill="#4E657B"/>
  <rect x="560" y="728" width="132" height="10" rx="4" fill="#7B93A8"/>
  <rect x="560" y="750" width="116" height="10" rx="4" fill="#7B93A8"/>
  <rect x="560" y="772" width="124" height="10" rx="4" fill="#7B93A8"/>

  <defs>
    <radialGradient id="avatarGrad" cx="0" cy="0" r="1" gradientUnits="userSpaceOnUse" gradientTransform="translate(635 82) rotate(58) scale(116)">
      <stop stop-color="#86A7C1"/>
      <stop offset="0.55" stop-color="#3F5A70"/>
      <stop offset="1" stop-color="#22384A"/>
    </radialGradient>
  </defs>
</svg>
