<svg xmlns="http://www.w3.org/2000/svg" width="540" height="760" viewBox="0 0 540 760">
  <rect width="540" height="760" fill="#eef3f7"/>
  <rect x="18" y="18" width="504" height="724" fill="#ffffff" stroke="#d6dfe8"/>

  <rect x="18" y="18" width="96" height="724" fill="url(#rail)"/>
  <text x="30" y="72" font-family="Arial, sans-serif" font-size="24" font-weight="700" fill="#f3f9ff">Template</text>
  <text x="30" y="102" font-family="Arial, sans-serif" font-size="24" font-weight="700" fill="#f3f9ff">16</text>
  <rect x="30" y="128" width="68" height="4" fill="#c9e8ff" opacity="0.8"/>

  <rect x="130" y="42" width="220" height="16" fill="#20354b"/>
  <rect x="130" y="66" width="160" height="8" fill="#3a566f"/>
  <rect x="130" y="92" width="360" height="42" fill="#f7fafd" stroke="#cad8e3"/>
  <rect x="130" y="92" width="6" height="42" fill="#1f7a8c"/>

  <rect x="130" y="160" width="108" height="10" fill="#1f466d"/>
  <rect x="130" y="184" width="226" height="10" fill="#20364c"/>
  <rect x="130" y="200" width="172" height="8" fill="#3a5168"/>
  <rect x="130" y="216" width="332" height="8" fill="#63788f" opacity="0.46"/>
  <rect x="410" y="184" width="80" height="18" rx="9" fill="#f6fafc" stroke="#b9cbda"/>

  <rect x="130" y="250" width="94" height="10" fill="#1f466d"/>
  <rect x="130" y="274" width="226" height="10" fill="#20364c"/>
  <rect x="130" y="290" width="172" height="8" fill="#3a5168"/>
  <rect x="130" y="306" width="332" height="8" fill="#63788f" opacity="0.46"/>
  <rect x="410" y="274" width="80" height="18" rx="9" fill="#f6fafc" stroke="#b9cbda"/>

  <rect x="130" y="342" width="116" height="10" fill="#1f466d"/>
  <rect x="130" y="366" width="226" height="10" fill="#20364c"/>
  <rect x="130" y="382" width="210" height="8" fill="#3a5168"/>
  <rect x="410" y="366" width="80" height="18" rx="9" fill="#f6fafc" stroke="#b9cbda"/>

  <rect x="130" y="430" width="95" height="10" fill="#1f466d"/>
  <rect x="130" y="452" width="360" height="1.5" fill="#d4dde5"/>
  <rect x="130" y="470" width="170" height="8" fill="#2f4258" opacity="0.78"/>
  <rect x="130" y="486" width="280" height="8" fill="#2f4258" opacity="0.4"/>

  <rect x="130" y="528" width="94" height="10" fill="#1f466d"/>
  <rect x="130" y="552" width="166" height="8" fill="#2f4258" opacity="0.78"/>
  <rect x="130" y="568" width="166" height="8" fill="#2f4258" opacity="0.42"/>
  <rect x="316" y="552" width="166" height="8" fill="#2f4258" opacity="0.78"/>
  <rect x="316" y="568" width="166" height="8" fill="#2f4258" opacity="0.42"/>

  <g fill="#ffffff" opacity="0.18">
    <rect x="30" y="182" width="68" height="1.3"/>
    <rect x="30" y="205" width="52" height="6"/>
    <rect x="30" y="220" width="62" height="6"/>
    <rect x="30" y="235" width="56" height="6"/>
    <rect x="30" y="272" width="68" height="1.3"/>
  </g>

  <defs>
    <linearGradient id="rail" x1="0" y1="0" x2="0" y2="1">
      <stop offset="0%" stop-color="#16324f"/>
      <stop offset="100%" stop-color="#24496f"/>
    </linearGradient>
  </defs>
</svg>
