<svg xmlns="http://www.w3.org/2000/svg" width="540" height="760" viewBox="0 0 540 760">
  <rect width="540" height="760" fill="#ececef"/>
  <rect x="20" y="18" width="500" height="724" rx="16" fill="#f4f4f5" stroke="#cfcfd1"/>
  <text x="270" y="66" text-anchor="middle" font-family="Arial, sans-serif" font-size="44" font-weight="700" fill="#191919">Template 17</text>
  <rect x="190" y="80" width="160" height="10" fill="#333"/>
  <rect x="138" y="104" width="264" height="8" fill="#4e4e4e"/>
  <rect x="72" y="132" width="396" height="7" fill="#8c8c8e"/>

  <rect x="40" y="166" width="112" height="12" fill="#474747"/>
  <rect x="40" y="188" width="460" height="1.5" fill="#bdbdbf"/>
  <rect x="40" y="202" width="460" height="8" fill="#666" opacity="0.58"/>
  <rect x="40" y="215" width="440" height="8" fill="#666" opacity="0.45"/>

  <rect x="40" y="252" width="90" height="12" fill="#474747"/>
  <rect x="40" y="274" width="460" height="1.5" fill="#bdbdbf"/>
  <g fill="#4a4a4a">
    <circle cx="48" cy="292" r="2.5"/><rect x="58" y="288" width="165" height="8" opacity="0.75"/>
    <circle cx="48" cy="308" r="2.5"/><rect x="58" y="304" width="160" height="8" opacity="0.75"/>
    <circle cx="48" cy="324" r="2.5"/><rect x="58" y="320" width="155" height="8" opacity="0.75"/>
    <circle cx="270" cy="292" r="2.5"/><rect x="280" y="288" width="180" height="8" opacity="0.75"/>
    <circle cx="270" cy="308" r="2.5"/><rect x="280" y="304" width="160" height="8" opacity="0.75"/>
    <circle cx="270" cy="324" r="2.5"/><rect x="280" y="320" width="170" height="8" opacity="0.75"/>
  </g>

  <rect x="40" y="360" width="136" height="12" fill="#474747"/>
  <rect x="40" y="382" width="460" height="1.5" fill="#bdbdbf"/>
  <rect x="40" y="398" width="248" height="10" fill="#343434"/>
  <rect x="420" y="398" width="80" height="10" fill="#555"/>
  <rect x="40" y="414" width="180" height="8" fill="#555" opacity="0.8"/>
  <rect x="410" y="414" width="90" height="8" fill="#777" opacity="0.7"/>
  <g fill="#444">
    <circle cx="48" cy="434" r="2.6"/><rect x="58" y="430" width="430" height="8" opacity="0.68"/>
    <circle cx="48" cy="450" r="2.6"/><rect x="58" y="446" width="420" height="8" opacity="0.68"/>
    <circle cx="48" cy="466" r="2.6"/><rect x="58" y="462" width="415" height="8" opacity="0.68"/>
  </g>

  <rect x="40" y="502" width="248" height="10" fill="#343434"/>
  <rect x="420" y="502" width="80" height="10" fill="#555"/>
  <rect x="40" y="518" width="180" height="8" fill="#555" opacity="0.8"/>
  <rect x="410" y="518" width="90" height="8" fill="#777" opacity="0.7"/>
  <g fill="#444">
    <circle cx="48" cy="538" r="2.6"/><rect x="58" y="534" width="430" height="8" opacity="0.68"/>
    <circle cx="48" cy="554" r="2.6"/><rect x="58" y="550" width="420" height="8" opacity="0.68"/>
  </g>
</svg>
