<svg xmlns="http://www.w3.org/2000/svg" width="540" height="760" viewBox="0 0 540 760">
  <rect width="540" height="760" fill="#eceff2"/>
  <rect x="20" y="20" width="500" height="720" rx="12" fill="#ffffff" stroke="#d8dde3"/>
  <rect x="20" y="20" width="500" height="120" rx="12" fill="#8e8e91"/>
  <text x="270" y="80" text-anchor="middle" font-family="Arial, sans-serif" font-size="44" font-weight="700" fill="#ffffff">TEMPLATE 13</text>
  <rect x="20" y="140" width="340" height="600" fill="#ffffff"/>
  <rect x="360" y="140" width="160" height="600" fill="#f8f9fb"/>
  <rect x="42" y="172" width="290" height="10" fill="#6a7078" opacity="0.4"/>
  <rect x="42" y="190" width="275" height="10" fill="#6a7078" opacity="0.3"/>
  <rect x="42" y="230" width="170" height="12" fill="#3c4148"/>
  <g fill="#bcc2ca">
    <circle cx="52" cy="270" r="4"/>
    <circle cx="52" cy="338" r="4"/>
    <circle cx="52" cy="406" r="4"/>
  </g>
  <rect x="65" y="265" width="238" height="8" fill="#6a7078" opacity="0.45"/>
  <rect x="65" y="281" width="220" height="8" fill="#6a7078" opacity="0.33"/>
  <rect x="65" y="333" width="238" height="8" fill="#6a7078" opacity="0.45"/>
  <rect x="65" y="349" width="220" height="8" fill="#6a7078" opacity="0.33"/>
  <rect x="65" y="401" width="238" height="8" fill="#6a7078" opacity="0.45"/>
  <rect x="65" y="417" width="220" height="8" fill="#6a7078" opacity="0.33"/>
  <rect x="380" y="175" width="90" height="10" fill="#3c4148"/>
  <rect x="380" y="195" width="120" height="8" fill="#6a7078" opacity="0.5"/>
  <rect x="380" y="210" width="110" height="8" fill="#6a7078" opacity="0.5"/>
  <rect x="380" y="240" width="72" height="10" fill="#3c4148"/>
  <rect x="380" y="258" width="122" height="8" fill="#6a7078" opacity="0.5"/>
  <rect x="380" y="274" width="116" height="8" fill="#6a7078" opacity="0.5"/>
  <rect x="380" y="305" width="92" height="10" fill="#3c4148"/>
  <rect x="380" y="323" width="118" height="8" fill="#6a7078" opacity="0.5"/>
</svg>
